<svg width="701" height="230" viewBox="0 0 701 230" fill="none" xmlns="http://www.w3.org/2000/svg">
<g id="multivocab-box-fish">
<g id="fish3" filter="url(#filter0_d)">
<rect id="Rectangle 3289" x="70.3724" y="103.606" width="15.6118" height="39.7392" rx="7.80592" transform="rotate(-57.2194 70.3724 103.606)" fill="#FF842B"/>
<rect id="Rectangle 3287" x="78.5171" y="104.349" width="15.2212" height="30.4163" rx="7.6106" transform="rotate(-96.6306 78.5171 104.349)" fill="#FF842B"/>
<rect id="Rectangle 3288" width="15.2212" height="30.4163" rx="7.6106" transform="matrix(-0.952086 0.30583 0.30583 0.952086 83.1714 97.1226)" fill="#FF842B"/>
<circle id="Ellipse 929" cx="49.3415" cy="80.7781" r="32.4064" transform="rotate(-57.2194 49.3415 80.7781)" fill="#FFAA2E"/>
<circle id="Ellipse 930" cx="21.9386" cy="82.2627" r="12.5368" transform="rotate(-57.2194 21.9386 82.2627)" fill="white"/>
<path id="Ellipse 932" d="M28.7263 71.7224C30.1105 72.6138 31.3055 73.7691 32.2432 75.1223C33.1809 76.4755 33.8429 78.0002 34.1913 79.6092C34.5398 81.2183 34.5679 82.8802 34.2741 84.5001C33.9803 86.12 33.3703 87.6662 32.4789 89.0504C31.5875 90.4346 30.4322 91.6296 29.079 92.5673C27.7258 93.505 26.2011 94.167 24.5921 94.5154C22.983 94.8639 21.3211 94.892 19.7012 94.5982C18.0812 94.3044 16.5351 93.6943 15.1509 92.803L21.9386 82.2627L28.7263 71.7224Z" fill="#FF842A"/>
<circle id="Ellipse 931" cx="39.6124" cy="54.8179" r="12.5368" transform="rotate(-57.2194 39.6124 54.8179)" fill="white"/>
<rect id="Rectangle 3284" x="35.3701" y="81.0657" width="15.6118" height="51.0933" rx="7.80592" transform="rotate(-57.2194 35.3701 81.0657)" fill="#FFBF61"/>
<rect id="Rectangle 3285" x="61.3429" y="55.588" width="9.9348" height="26.4928" rx="4.9674" transform="rotate(-57.2194 61.3429 55.588)" fill="#FF842A"/>
<rect id="Rectangle 3286" x="26.251" y="110.08" width="9.9348" height="26.4928" rx="4.9674" transform="rotate(-57.2194 26.251 110.08)" fill="#FF842A"/>
<path id="Ellipse 933" d="M46.4001 44.2776C47.7843 45.169 48.9794 46.3242 49.917 47.6775C50.8547 49.0307 51.5167 50.5553 51.8652 52.1644C52.2136 53.7734 52.2417 55.4354 51.9479 57.0553C51.6541 58.6752 51.0441 60.2214 50.1527 61.6056C49.2613 62.9897 48.1061 64.1848 46.7528 65.1225C45.3996 66.0602 43.8749 66.7221 42.2659 67.0706C40.6568 67.4191 38.9949 67.4472 37.375 67.1534C35.7551 66.8595 34.2089 66.2495 32.8247 65.3581L39.6124 54.8179L46.4001 44.2776Z" fill="#FF842A"/>
</g>
<g id="fish2" filter="url(#filter1_d)">
<rect id="Rectangle 3289_2" x="348.151" y="170.848" width="15.6118" height="39.7392" rx="7.80592" transform="rotate(36.2432 348.151 170.848)" fill="#FF842B"/>
<rect id="Rectangle 3287_2" x="346.917" y="178.933" width="15.2212" height="30.4163" rx="7.6106" transform="rotate(-3.16807 346.917 178.933)" fill="#FF842B"/>
<rect id="Rectangle 3288_2" width="15.2212" height="30.4163" rx="7.6106" transform="matrix(-0.247769 -0.968819 -0.968819 0.247769 353.849 184.015)" fill="#FF842B"/>
<circle id="Ellipse 929_2" cx="372.207" cy="151.234" r="32.4064" transform="rotate(36.2432 372.207 151.234)" fill="#FFAA2E"/>
<circle id="Ellipse 930_2" cx="372.38" cy="123.791" r="12.5368" transform="rotate(36.2432 372.38 123.791)" fill="white"/>
<path id="Ellipse 932_2" d="M382.491 131.203C381.518 132.531 380.292 133.654 378.885 134.508C377.477 135.362 375.916 135.931 374.288 136.182C372.661 136.432 371.001 136.36 369.401 135.969C367.802 135.578 366.296 134.875 364.968 133.902C363.64 132.929 362.517 131.703 361.663 130.296C360.809 128.889 360.24 127.327 359.989 125.7C359.739 124.072 359.811 122.412 360.202 120.813C360.593 119.213 361.295 117.707 362.269 116.379L372.38 123.791L382.491 131.203Z" fill="#FF842A"/>
<circle id="Ellipse 931_2" cx="398.708" cy="143.09" r="12.5368" transform="rotate(36.2432 398.708 143.09)" fill="white"/>
<rect id="Rectangle 3284_2" x="372.764" y="137.271" width="15.6118" height="51.0933" rx="7.80592" transform="rotate(36.2432 372.764 137.271)" fill="#FFBF61"/>
<rect id="Rectangle 3285_2" x="396.626" y="164.735" width="9.9348" height="26.4928" rx="4.9674" transform="rotate(36.2432 396.626 164.735)" fill="#FF842A"/>
<rect id="Rectangle 3286_2" x="344.353" y="126.416" width="9.9348" height="26.4928" rx="4.9674" transform="rotate(36.2432 344.353 126.416)" fill="#FF842A"/>
<path id="Ellipse 933_2" d="M408.819 150.502C407.845 151.83 406.62 152.953 405.213 153.807C403.805 154.662 402.243 155.23 400.616 155.481C398.989 155.732 397.329 155.659 395.729 155.268C394.13 154.877 392.624 154.175 391.296 153.201C389.968 152.228 388.845 151.003 387.991 149.595C387.136 148.188 386.568 146.626 386.317 144.999C386.066 143.372 386.139 141.711 386.53 140.112C386.921 138.513 387.623 137.006 388.597 135.678L398.708 143.09L408.819 150.502Z" fill="#FF842A"/>
</g>
<g id="fish1" filter="url(#filter2_d)">
<rect id="Rectangle 3289_3" x="623.605" y="48.9388" width="15.6118" height="39.7392" rx="7.80592" transform="rotate(70.8846 623.605 48.9388)" fill="#FF842B"/>
<rect id="Rectangle 3287_3" x="617.994" y="54.8887" width="15.2212" height="30.4163" rx="7.6106" transform="rotate(31.4733 617.994 54.8887)" fill="#FF842B"/>
<rect id="Rectangle 3288_3" width="15.2212" height="30.4163" rx="7.6106" transform="matrix(0.346868 -0.937914 -0.937914 -0.346868 620.809 63.011)" fill="#FF842B"/>
<circle id="Ellipse 929_3" cx="654.546" cy="46.4769" r="32.4064" transform="rotate(70.8846 654.546 46.4769)" fill="#FFAA2E"/>
<circle id="Ellipse 930_3" cx="670.288" cy="23.9966" r="12.5368" transform="rotate(70.8846 670.288 23.9966)" fill="white"/>
<path id="Ellipse 932_3" d="M674.393 35.8421C672.838 36.3812 671.191 36.6087 669.548 36.5115C667.904 36.4143 666.296 35.9944 664.815 35.2756C663.334 34.5569 662.008 33.5535 660.915 32.3226C659.822 31.0918 658.981 29.6576 658.442 28.102C657.903 26.5465 657.676 24.8999 657.773 23.2565C657.87 21.613 658.29 20.0047 659.009 18.5235C659.727 17.0424 660.731 15.7173 661.962 14.6239C663.193 13.5305 664.627 12.6902 666.182 12.1511L670.288 23.9966L674.393 35.8421Z" fill="#FF842A"/>
<circle id="Ellipse 931_3" cx="680.977" cy="54.8401" r="12.5368" transform="rotate(70.8846 680.977 54.8401)" fill="white"/>
<rect id="Rectangle 3284_3" x="662.941" y="35.3053" width="15.6118" height="51.0933" rx="7.80592" transform="rotate(70.8846 662.941 35.3053)" fill="#FFBF61"/>
<rect id="Rectangle 3285_3" x="666.962" y="71.464" width="9.9348" height="26.4928" rx="4.9674" transform="rotate(70.8846 666.962 71.464)" fill="#FF842A"/>
<rect id="Rectangle 3286_3" x="645.738" y="10.2247" width="9.9348" height="26.4928" rx="4.9674" transform="rotate(70.8846 645.738 10.2247)" fill="#FF842A"/>
<path id="Ellipse 933_3" d="M685.083 66.6856C683.527 67.2247 681.881 67.4522 680.237 67.355C678.594 67.2578 676.986 66.8379 675.504 66.1191C674.023 65.4004 672.698 64.397 671.605 63.1661C670.511 61.9353 669.671 60.5011 669.132 58.9455C668.593 57.39 668.365 55.7434 668.463 54.1C668.56 52.4565 668.98 50.8482 669.698 49.3671C670.417 47.8859 671.421 46.5608 672.651 45.4674C673.882 44.374 675.316 43.5337 676.872 42.9946L680.977 54.8401L685.083 66.6856Z" fill="#FF842A"/>
</g>
</g>
<defs>
<filter id="filter0_d" x="0.550293" y="35.9868" width="115.685" height="102.75" filterUnits="userSpaceOnUse" color-interpolation-filters="sRGB">
<feFlood flood-opacity="0" result="BackgroundImageFix"/>
<feColorMatrix in="SourceAlpha" type="matrix" values="0 0 0 0 0 0 0 0 0 0 0 0 0 0 0 0 0 0 127 0"/>
<feOffset dy="4"/>
<feGaussianBlur stdDeviation="2"/>
<feColorMatrix type="matrix" values="0 0 0 0 0 0 0 0 0 0 0 0 0 0 0 0 0 0 0.25 0"/>
<feBlend mode="normal" in2="BackgroundImageFix" result="effect1_dropShadow"/>
<feBlend mode="normal" in="SourceGraphic" in2="effect1_dropShadow" result="shape"/>
</filter>
<filter id="filter1_d" x="316.61" y="105.939" width="104.893" height="114.189" filterUnits="userSpaceOnUse" color-interpolation-filters="sRGB">
<feFlood flood-opacity="0" result="BackgroundImageFix"/>
<feColorMatrix in="SourceAlpha" type="matrix" values="0 0 0 0 0 0 0 0 0 0 0 0 0 0 0 0 0 0 127 0"/>
<feOffset dy="4"/>
<feGaussianBlur stdDeviation="2"/>
<feColorMatrix type="matrix" values="0 0 0 0 0 0 0 0 0 0 0 0 0 0 0 0 0 0 0.25 0"/>
<feBlend mode="normal" in2="BackgroundImageFix" result="effect1_dropShadow"/>
<feBlend mode="normal" in="SourceGraphic" in2="effect1_dropShadow" result="shape"/>
</filter>
<filter id="filter2_d" x="582.057" y="5.24524" width="118.872" height="92.2814" filterUnits="userSpaceOnUse" color-interpolation-filters="sRGB">
<feFlood flood-opacity="0" result="BackgroundImageFix"/>
<feColorMatrix in="SourceAlpha" type="matrix" values="0 0 0 0 0 0 0 0 0 0 0 0 0 0 0 0 0 0 127 0"/>
<feOffset dy="4"/>
<feGaussianBlur stdDeviation="2"/>
<feColorMatrix type="matrix" values="0 0 0 0 0 0 0 0 0 0 0 0 0 0 0 0 0 0 0.25 0"/>
<feBlend mode="normal" in2="BackgroundImageFix" result="effect1_dropShadow"/>
<feBlend mode="normal" in="SourceGraphic" in2="effect1_dropShadow" result="shape"/>
</filter>
</defs>
</svg>
